<svg width="2005" height="2232" viewBox="0 0 2005 2232" fill="none" xmlns="http://www.w3.org/2000/svg">
<g clip-path="url(#clip0_101_103)">
<rect x="377.642" y="312.836" width="1381" height="1262" rx="100" transform="rotate(5.58121 377.642 312.836)" fill="#0F73D0"/>
<path d="M97.5 1909C97.5 1930.58 115.407 1952.17 150.491 1972.53C185.323 1992.75 235.959 2011.08 298.835 2026.52C424.531 2057.38 598.363 2076.5 790.5 2076.5C982.637 2076.5 1156.47 2057.38 1282.17 2026.52C1345.04 2011.08 1395.68 1992.75 1430.51 1972.53C1465.59 1952.17 1483.5 1930.58 1483.5 1909C1483.5 1887.42 1465.59 1865.83 1430.51 1845.47C1395.68 1825.25 1345.04 1806.92 1282.17 1791.48C1156.47 1760.62 982.637 1741.5 790.5 1741.5C598.363 1741.5 424.531 1760.62 298.835 1791.48C235.959 1806.92 185.323 1825.25 150.491 1845.47C115.407 1865.83 97.5 1887.42 97.5 1909ZM850.312 2028.74C699.615 2028.74 563.068 2013.77 464.096 1989.52C414.637 1977.4 374.365 1962.91 346.373 1946.69C318.636 1930.62 301.798 1912.15 301.798 1891.68C301.798 1871.2 318.636 1852.73 346.373 1836.66C374.365 1820.44 414.637 1805.96 464.096 1793.84C563.068 1769.58 699.615 1754.62 850.312 1754.62C1001.01 1754.62 1137.56 1769.58 1236.53 1793.84C1285.99 1805.96 1326.26 1820.44 1354.25 1836.66C1381.99 1852.73 1398.83 1871.2 1398.83 1891.68C1398.83 1912.15 1381.99 1930.62 1354.25 1946.69C1326.26 1962.91 1285.99 1977.4 1236.53 1989.52C1137.56 2013.77 1001.01 2028.74 850.312 2028.74Z" fill="#FF7A00" stroke="#0F73D0" stroke-width="7"/>
<path fill-rule="evenodd" clip-rule="evenodd" d="M846 2008C501.927 2008 223 1939.5 223 1855C223 1770.5 501.927 1702 846 1702C1190.07 1702 1469 1770.5 1469 1855C1469 1939.5 1190.07 2008 846 2008ZM899.5 1959C630.261 1959 412 1905.5 412 1839.5C412 1773.5 630.261 1720 899.5 1720C1168.74 1720 1387 1773.5 1387 1839.5C1387 1905.5 1168.74 1959 899.5 1959Z" fill="#FFC700"/>
<path d="M1829.73 38.2537C1823.95 36.5399 1817.83 36.7982 1811.89 37.1634C1804.02 37.9621 1796.12 38.7528 1788.37 40.3492C1772.1 44.4614 1756.59 51.0032 1741.24 57.6774C1698.23 76.9451 1657.31 100.493 1616.85 124.559C1592.19 139.231 1587.71 139.42 1552.3 164.321C1540.45 172.654 1493.37 213.81 1482 222.788C1523.07 197.716 1547.63 175.819 1589.22 151.635C1620.07 133.696 1632.7 126.22 1663.23 113.316C1697.8 95.2101 1732.61 77.2594 1769.24 63.6232C1782.93 58.8553 1796.94 54.308 1811.53 53.6212C1790.22 68.9524 1768.43 83.9735 1750.13 102.973C1725.06 128.28 1705.26 160.239 1699.84 195.882C1682.76 315.426 1666.66 435.111 1652.9 555.091C1651.75 565.421 1650.51 575.754 1649.56 586.11C1649.39 587.968 1649.23 589.826 1649.08 591.685C1670.84 477.228 1690.18 362.323 1708.48 247.276C1711.21 230.351 1713.77 213.404 1716.64 196.505C1721.95 166.79 1738.43 140.15 1759.12 118.612C1774.73 102.264 1792.58 88.2602 1810.98 75.207C1818.02 70.1232 1825.31 65.3758 1831.81 59.6004C1835.27 56.5082 1838.48 52.2113 1837.81 47.3103C1837.35 42.935 1833.77 39.5197 1829.73 38.2537Z" fill="#DEFFF3"/>
<path d="M1564.9 195.798C1565.86 194.901 1559.7 190.612 1558.67 189.537C1492.11 246.156 1434.02 308.846 1372.49 370.889C1345.15 398.612 1318.58 427.105 1292.98 456.433C1266.57 486.89 1241.2 518.345 1218.73 551.846C1207.99 568.092 1197.91 584.798 1189.45 602.355C1182.06 618.404 1175.02 634.626 1166.91 650.341C1142.12 699.026 1112.27 744.892 1086.04 792.781C1066.03 829.154 1048.28 866.862 1034.69 906.114C1010.19 976.447 999.159 1052.5 1007.1 1126.59C1007.11 1126.68 1007.12 1126.78 1007.13 1126.87C1007.65 1126.84 1010.42 1126.43 1010.94 1126.4C1011.05 1121.23 1011.22 1116.06 1011.44 1110.89C1013.27 1067.8 1018.75 1024.81 1029.38 982.98C1040.16 940.012 1056.14 898.449 1075.57 858.68C1087.59 833.902 1100.71 809.695 1114.09 785.632C1140.01 739.047 1166.96 693.005 1189 644.416C1195.05 631.35 1200.15 617.87 1206.2 604.804C1224.3 567.335 1248.49 533.219 1273.68 500.237C1299.99 466.379 1327.99 433.874 1356.91 402.208C1422.78 330.04 1492.68 261.6 1564.9 195.798Z" fill="#DEFFF3"/>
<path d="M1390.28 547.246C1391.69 544.947 1396.08 544.936 1397.77 545.822C1399.53 546.746 1402.03 549.629 1400.59 552.766C1399.14 555.902 1289.87 767.811 1236.84 876.497C1196.82 958.951 1157.65 1041.83 1121.18 1125.9C1103.85 1166.11 1087.07 1206.56 1072.11 1247.7C1058.07 1286.95 1046.03 1326.88 1034.57 1366.95C1029.79 1383.75 1025.16 1400.59 1020.63 1417.45C1013.93 1442.4 1007.47 1467.41 1001.15 1492.45C994.011 1520.73 987.055 1549.05 980.146 1577.39C974.971 1598.61 969.823 1619.84 964.646 1641.07L963.163 1647.41C962.914 1648.41 962.666 1649.42 962.418 1650.43C962.18 1651.4 961.941 1652.37 961.704 1653.34C956.086 1676.2 950.517 1699.08 944.673 1721.89L940.384 1738.08C933.532 1765.11 926.138 1792.06 917.104 1818.46C913.428 1828.72 909.653 1839.07 904.036 1848.45C900.032 1855.45 892.902 1859.77 886 1863.5C880.099 1866.54 872.253 1868.24 866.501 1863.98C860.321 1859.51 858.933 1851.49 857.722 1844.48L857.709 1844.41C856.556 1831.48 856.608 1818.47 857.253 1805.52C860.223 1784.62 866.628 1764.41 872.018 1744.06L877.077 1726.91C884.208 1702.66 891.552 1678.47 899.281 1654.41L900.496 1649.76C907.061 1630.15 913.038 1610.33 919.501 1590.68C922.335 1581.93 925.177 1573.18 928.026 1564.43C938.863 1531.16 949.81 1497.92 960.901 1464.72C963.145 1458.01 965.394 1451.29 967.65 1444.58C972.231 1430.95 976.838 1417.33 981.472 1403.72C992.722 1374.73 1003.97 1345.75 1015.22 1316.76C1035.3 1265 1055.39 1213.24 1075.48 1161.48C1107.63 1078.62 1139.8 995.757 1172 912.904C1175.62 914.168 1179.17 915.648 1182.78 916.968C1121.43 1075.31 1059.93 1233.59 998.486 1391.9C992.097 1407.5 986.978 1423.55 981.578 1439.51C959.042 1506.7 936.836 1574 915.408 1641.55C914.559 1644.07 913.691 1647.05 912.87 1649.62C911.479 1653.11 911.228 1655.81 909.828 1659.31C902.678 1681.56 896.216 1704.03 889.109 1726.28L884.895 1743.25C883.707 1744.34 883.654 1746.1 883.122 1747.59L883.095 1747.68C879.085 1761.98 875.068 1776.3 871.74 1790.79C870.204 1798.1 868.301 1805.43 868.506 1812.97C868.257 1820.79 868.455 1828.62 868.608 1836.44C869.211 1842.56 869.211 1849.4 873.074 1854.52C878.063 1855.94 882.584 1851.99 886.665 1849.65C894.243 1845.44 897.117 1836.76 900.596 1829.37C912.195 1800.22 919.998 1769.74 928.145 1739.49L932.355 1723.28C937.191 1704.42 941.882 1685.52 946.517 1666.6C948.115 1661.19 949.699 1653.74 951.709 1648.07C952.514 1645.81 952.394 1642.2 953.465 1638.15C974.047 1553.39 994.325 1468.55 1017.61 1384.48C1029.96 1340.05 1043.05 1295.8 1058.19 1252.22C1072.08 1213.11 1087.76 1174.65 1104.01 1136.46C1136.52 1060.52 1171.45 985.639 1207.19 911.168C1229.45 864.949 1260.82 802.044 1291.31 741.533C1303.13 718.075 1314.82 694.977 1325.8 673.349C1361.46 603.081 1389.6 548.34 1390.28 547.246Z" fill="#DEFFF3"/>
<path d="M1643.28 586.442C1641.09 586.735 1638.85 586.946 1636.73 587.696C1591.28 603.363 1546.77 622.155 1504.89 645.822C1487.44 656.114 1469.85 666.878 1455.86 681.706C1450.63 687.563 1444.68 695.232 1447.44 703.569C1450.21 711.05 1458.79 713.479 1465.98 714.151C1484.44 715.586 1502.83 712.179 1520.91 708.831C1520.91 708.83 1520.92 708.828 1520.93 708.827C1553.97 702.108 1586.55 693.128 1618.43 682.178C1623.61 680.401 1628.76 678.572 1633.9 676.693C1587.9 684.423 1542.22 694.615 1495.78 699.571C1484.32 700.022 1472.41 702.099 1461.23 698.529C1466.7 690.074 1474.62 683.614 1482.47 677.455C1496.61 666.791 1511.73 657.503 1526.98 648.512C1562.12 627.951 1598.44 609.489 1634.41 590.42C1637.22 588.773 1640.2 587.462 1643.28 586.442Z" fill="#DEFFF3"/>
<path d="M1618.39 695.598C1599.06 759.233 1586.37 824.615 1569.47 888.903C1564.45 907.022 1559.58 925.37 1551.15 942.272C1550.18 945.079 1546.71 944.826 1544.39 945.827C1510.25 957.075 1476.83 971.008 1445.72 989.098C1432.73 996.965 1419.68 1005.37 1409.61 1016.92C1405.81 1021.58 1401.85 1027.37 1403.31 1033.71C1404.33 1039.65 1410.2 1043.16 1415.67 1044.36C1426.86 1046.64 1438.37 1045.26 1449.57 1043.83C1475.91 1040.09 1501.58 1032.82 1526.99 1025.14C1514.97 1044.49 1503.3 1064.08 1490.54 1082.98C1466.14 1120.02 1439.71 1155.8 1410.59 1189.3C1395.1 1206.71 1378.93 1223.53 1361.54 1239.06C1344.1 1254.2 1325.56 1268.04 1306.31 1280.81C1267.96 1306.65 1227.41 1329.07 1186.24 1350.06C1155.93 1365.51 1125.17 1380.01 1094.15 1393.96C1088.77 1396.24 1084.81 1401.15 1079.15 1402.74C1089.14 1399.94 1093.71 1397.45 1097.84 1396C1145.11 1379.33 1189 1363.05 1234.19 1341.14C1272.89 1321.88 1310.65 1300.43 1345.35 1274.55C1380.61 1248.11 1411.03 1215.67 1437.61 1180.64C1473.97 1132.57 1504.35 1079.96 1527.99 1024.53C1534.47 1022.49 1540.8 1019.98 1547.26 1017.85C1533.28 1019.03 1519.51 1021.88 1505.61 1023.7C1483.91 1026.75 1462.23 1030.11 1440.35 1031.54C1433.21 1031.67 1425.98 1032.05 1418.94 1030.6C1418.5 1029.48 1418.71 1028.53 1419.57 1027.76C1427.57 1018 1438.15 1010.87 1448.45 1003.79C1479.16 983.711 1511.78 966.832 1543.82 949.039C1546.72 947.326 1550.08 946.392 1552.64 944.147C1562.91 932.402 1570.89 918.826 1577.28 904.624C1593.33 868.696 1602.9 830.233 1609.89 791.623C1614.84 763.318 1618.13 734.688 1618.78 705.951C1618.92 702.498 1618.97 699.014 1618.39 695.598Z" fill="#DEFFF3"/>
<path d="M908.536 950.061C903.288 948.997 899.146 954.699 899.61 959.506C900.413 989.624 902.977 1019.69 906.222 1049.64C909.574 1078.54 913.079 1107.45 918.348 1136.06C923.124 1162.44 925.878 1184.91 934.503 1210.33C939.063 1222.58 946.711 1248.28 955.706 1258.08C948.977 1246.79 945.724 1224.8 942.875 1212.1C936.973 1184.68 933.968 1156.75 930.535 1128.95C928.531 1109.65 926.732 1090.35 924.633 1071.08L924.969 1070.29C923.324 1055.65 922.384 1040.93 921.199 1026.25C942.021 1062.72 969.318 1095.09 998.786 1124.84C1006.02 1132.01 1013.35 1139.11 1021.11 1145.73C1016.49 1139.89 1011.88 1134.04 1007.3 1128.17C983.63 1097.79 960.784 1066.69 941.814 1033.14C932.384 1015.95 923.483 998.129 919.322 978.838C917.755 971.328 917.649 963.627 916.381 956.08C914.874 953.092 911.691 951.026 908.536 950.061Z" fill="#DEFFF3"/>
<path d="M887.293 1120.4C885.319 1118.02 882.668 1116.04 879.611 1115.35C875.33 1114.57 871.936 1118.61 871.062 1122.41C870.814 1127.42 871.099 1132.46 871.524 1137.48L871.203 1138.21C874.486 1190.86 879.503 1243.5 888.71 1295.49C893.348 1322.68 899.08 1349.78 907.596 1376.06C910.7 1385.22 914.153 1394.31 918.733 1402.85C921.075 1406.99 923.554 1411.16 927.147 1414.36C921.666 1406.41 919.23 1396.88 916.625 1387.72C908.976 1356.6 905.542 1324.68 901.792 1292.91C899.103 1268.68 896.702 1244.41 894.891 1220.1C894.038 1210.47 892.807 1200.85 892.729 1191.19C896.346 1199.22 901.572 1206.42 906.343 1213.81C919.111 1232.91 933.636 1250.79 948.975 1267.89C962.703 1282.92 982.615 1295.44 998.144 1308.63C970.632 1274.09 937.904 1241.11 915.652 1202.88C904.16 1182.35 892.958 1160.91 889.473 1137.35C888.403 1131.75 889.251 1125.81 887.293 1120.4Z" fill="#DEFFF3"/>
<path d="M840.528 1317.59C837.775 1311.02 826.746 1311.7 825.067 1318.73C823.274 1327.74 827.086 1336.65 829.882 1345.07C839.502 1392.94 849.814 1440.97 866.989 1486.8C872.555 1500.26 877.668 1514.54 887.776 1525.36C882.672 1514.41 879.744 1502.65 876.923 1490.95C870.956 1463.88 865.772 1436.66 860.525 1409.45C858.593 1399.86 856.606 1390.27 854.991 1380.62C869.827 1397.07 886.707 1411.73 904.993 1424.25C884.728 1400.09 863.308 1376.33 848.491 1348.27C845.318 1338.2 844.476 1327.44 840.528 1317.59Z" fill="#DEFFF3"/>
<path d="M1220.12 1402.46C1219.74 1398.72 1218.42 1394.56 1214.87 1392.72C1211.42 1391.99 1208.11 1393.83 1205.68 1396.15C1190.69 1410.26 1172.21 1419.77 1154.16 1429.34C1117.8 1448.02 1080.36 1464.49 1043.18 1481.45C1035.42 1484.7 1028.04 1488.85 1020.02 1491.49C1031.25 1489.97 1041.87 1485.75 1052.72 1482.69C1090.59 1470.59 1127.98 1456.74 1163.9 1439.65C1134.43 1468.6 1105.13 1497.77 1074.31 1525.31C1068.9 1530.26 1063.01 1534.7 1057.72 1539.8C1078.33 1527.96 1097.4 1513.7 1115.92 1498.87C1146.82 1473.95 1176.31 1447.29 1204.49 1419.34C1209.79 1413.8 1215.49 1408.6 1220.12 1402.46Z" fill="#DEFFF3"/>
<path d="M1174.87 1487.46C1170.35 1486.01 1166.4 1489.5 1163.38 1492.4C1147.83 1506.41 1128.92 1515.87 1110.52 1525.54C1074.6 1543.85 1037.66 1560.07 1000.99 1576.81C993.764 1579.86 985.591 1583.34 978.105 1585.76C983.8 1585.38 990.345 1583.66 995.87 1582.21C996.041 1582.17 996.21 1582.12 996.379 1582.08C1033.44 1571.05 1069.91 1557.99 1105.36 1542.53C1111.54 1540.16 1117.2 1536.44 1123.57 1534.64C1122.93 1535.1 1121.66 1536.02 1121.02 1536.48C1092.37 1565.04 1063.48 1593.41 1033.32 1620.38C1027.91 1624.87 1022.97 1630 1016.96 1633.71C1025.18 1630.74 1032.05 1625 1039.41 1620.44C1074.69 1596.01 1107.07 1567.69 1138.52 1538.57C1152.58 1525.08 1167.12 1511.95 1179.72 1497.07C1179.45 1493.41 1178.18 1489.46 1174.87 1487.46Z" fill="#DEFFF3"/>
<path d="M963.163 1647.41L964.646 1641.07C969.142 1622.64 973.616 1604.2 978.105 1585.76C983.8 1585.38 990.345 1583.66 995.87 1582.21L996.379 1582.08C1033.44 1571.05 1069.91 1557.99 1105.36 1542.53C1111.54 1540.16 1117.2 1536.44 1123.57 1534.64L1121.02 1536.48C1092.37 1565.04 1063.48 1593.41 1033.32 1620.38C1027.91 1624.87 1022.97 1630 1016.96 1633.71C1008.85 1636.68 988.197 1647.36 961.704 1653.34L962.418 1650.43L963.163 1647.41Z" fill="#DEFFF3"/>
<path d="M1020.02 1491.49C1031.25 1489.97 1041.87 1485.75 1052.72 1482.69C1090.59 1470.59 1127.98 1456.74 1163.9 1439.65C1134.43 1468.6 1105.13 1497.77 1074.31 1525.31C1068.9 1530.26 1063.01 1534.7 1057.72 1539.8C1024.38 1560.55 993.265 1572.52 980.146 1577.39C987.055 1549.05 994.011 1520.73 1001.15 1492.45C1003.4 1492.63 1010.33 1492.69 1020.02 1491.49Z" fill="#DEFFF3"/>
<path d="M887.776 1525.36C882.672 1514.41 879.744 1502.65 876.923 1490.95C870.956 1463.88 865.772 1436.66 860.525 1409.45C858.593 1399.86 856.606 1390.27 854.991 1380.62C869.827 1397.07 886.707 1411.73 904.993 1424.25C921.963 1439.28 933.126 1452.3 960.901 1464.72C949.81 1497.92 938.863 1531.16 928.026 1564.43C910.304 1553.18 899.096 1538.1 887.776 1525.36Z" fill="#DEFFF3"/>
<path d="M1182.78 916.968C1179.17 915.648 1175.62 914.168 1172 912.904C1179.35 892.385 1194.31 864.838 1212.53 835.231C1248.71 776.419 1297.79 709.479 1325.8 673.349C1314.82 694.977 1303.13 718.075 1291.31 741.533C1261.19 785.883 1197.31 883.06 1182.78 916.968Z" fill="#DEFFF3"/>
<path d="M1663.23 113.316C1697.8 95.2101 1732.61 77.2594 1769.24 63.6232C1782.93 58.8553 1796.94 54.308 1811.53 53.6212C1790.22 68.9524 1768.43 83.9735 1750.13 102.973C1725.06 128.28 1705.26 160.239 1699.84 195.882C1682.76 315.426 1666.66 435.111 1652.9 555.091C1651.75 565.421 1650.51 575.754 1649.56 586.11C1648.6 586.081 1645.99 586.107 1643.28 586.442C1641.09 586.735 1638.85 586.946 1636.73 587.696C1591.28 603.363 1546.77 622.155 1504.89 645.822C1487.44 656.114 1469.85 666.878 1455.86 681.706C1450.63 687.563 1444.68 695.232 1447.44 703.569C1450.21 711.05 1458.79 713.479 1465.98 714.151C1484.44 715.586 1502.83 712.179 1520.91 708.831L1520.93 708.827C1553.97 702.108 1586.55 693.128 1618.43 682.178C1618.03 683.489 1617.45 688.008 1618.39 695.598C1599.06 759.233 1586.37 824.615 1569.47 888.903C1564.45 907.022 1559.58 925.37 1551.15 942.272C1550.18 945.079 1546.71 944.826 1544.39 945.827C1510.25 957.075 1476.83 971.008 1445.72 989.098C1432.73 996.965 1419.68 1005.37 1409.61 1016.92C1405.81 1021.58 1401.85 1027.37 1403.31 1033.71C1404.33 1039.65 1410.2 1043.16 1415.67 1044.36C1426.86 1046.64 1438.37 1045.26 1449.57 1043.83C1475.91 1040.09 1501.58 1032.82 1526.99 1025.14C1514.97 1044.49 1503.3 1064.08 1490.54 1082.98C1466.14 1120.02 1439.71 1155.8 1410.59 1189.3C1395.1 1206.71 1378.93 1223.53 1361.54 1239.06C1344.1 1254.2 1325.56 1268.04 1306.31 1280.81C1267.96 1306.65 1227.41 1329.07 1186.24 1350.06C1155.93 1365.51 1125.17 1380.01 1094.15 1393.96C1088.77 1396.24 1084.81 1401.15 1079.15 1402.74C1066.8 1408.05 1038.09 1415.3 1020.63 1417.45C1025.16 1400.59 1029.79 1383.75 1034.57 1366.95C1046.03 1326.88 1058.07 1286.95 1072.11 1247.7C1087.07 1206.56 1103.85 1166.11 1121.18 1125.9C1157.65 1041.83 1196.82 958.951 1236.84 876.497C1289.87 767.811 1399.14 555.902 1400.59 552.766C1402.03 549.629 1399.53 546.746 1397.77 545.822L1356.91 402.208C1422.78 330.04 1492.68 261.6 1564.9 195.798C1565.86 194.901 1559.7 190.612 1558.67 189.537C1572 176.406 1635.97 134.354 1663.23 113.316Z" fill="#DEFFF3"/>
<path d="M955.706 1258.08C948.977 1246.79 945.724 1224.8 942.875 1212.1C936.973 1184.68 933.968 1156.75 930.535 1128.95C928.531 1109.65 926.732 1090.35 924.633 1071.08L924.969 1070.29C923.324 1055.65 922.384 1040.93 921.199 1026.25C942.021 1062.72 969.318 1095.09 998.786 1124.84C1006.02 1132.01 1013.35 1139.11 1021.11 1145.73L1075.48 1161.48C1055.39 1213.24 1035.3 1265 1015.22 1316.76L998.144 1308.63C984.636 1291.67 969.871 1275.09 955.706 1258.08Z" fill="#DEFFF3"/>
<path d="M1189 644.416C1195.05 631.35 1200.15 617.87 1206.2 604.804C1224.3 567.335 1248.49 533.219 1273.68 500.237C1299.99 466.379 1327.99 433.874 1356.91 402.208L1397.77 545.822C1396.08 544.936 1391.69 544.947 1390.28 547.246C1389.6 548.34 1361.46 603.081 1325.8 673.349C1297.79 709.479 1248.71 776.419 1212.53 835.231L1114.09 785.632C1140.01 739.047 1166.96 693.005 1189 644.416Z" fill="#DEFFF3"/>
<path d="M1029.38 982.98C1040.16 940.012 1056.14 898.449 1075.57 858.68C1087.59 833.902 1100.71 809.695 1114.09 785.632L1212.53 835.231C1194.31 864.838 1179.35 892.385 1172 912.904C1139.8 995.757 1107.63 1078.62 1075.48 1161.48L1011.44 1110.89C1013.27 1067.8 1018.75 1024.81 1029.38 982.98Z" fill="#DEFFF3"/>
<path d="M1007.13 1126.87C1007.65 1126.84 1010.42 1126.43 1010.94 1126.4C1011.05 1121.23 1011.22 1116.06 1011.44 1110.89L1075.48 1161.48L1021.11 1145.73C1016.49 1139.89 1011.88 1134.04 1007.3 1128.17L1007.13 1126.87Z" fill="#DEFFF3"/>
<path d="M927.147 1414.36C921.666 1406.41 919.23 1396.88 916.625 1387.72C908.976 1356.6 905.542 1324.68 901.792 1292.91C899.103 1268.68 896.702 1244.41 894.891 1220.1C894.038 1210.47 892.807 1200.85 892.729 1191.19C896.346 1199.22 901.572 1206.42 906.343 1213.81C919.111 1232.91 933.636 1250.79 948.975 1267.89C962.703 1282.92 982.615 1295.44 998.144 1308.63L1015.22 1316.76C1003.97 1345.75 992.722 1374.73 981.472 1403.72C976.838 1417.33 972.231 1430.95 967.65 1444.58C952.368 1438.68 935.14 1420.52 927.147 1414.36Z" fill="#DEFFF3"/>
<path d="M1744.4 170.045C1739.03 168.451 1733.34 168.69 1727.82 169.03L1727.55 169.057C1720.32 169.79 1713.08 170.525 1705.97 171.991C1690.84 175.814 1676.43 181.896 1662.16 188.102C1622.19 206.017 1584.16 227.913 1546.56 250.291C1500.31 278.272 1455 307.809 1410.66 338.708C1408.44 340.265 1406.22 341.814 1404.01 343.363C1395.18 349.525 1386.34 355.691 1377.9 362.362C1416.06 339.048 1454.52 316.241 1493.18 293.753C1525.04 275.268 1557.12 257.129 1589.67 239.839C1621.8 223.003 1654.14 206.312 1688.19 193.634C1700.91 189.201 1713.93 184.973 1727.49 184.335C1725.69 185.631 1723.89 186.925 1722.08 188.219C1704.03 201.162 1685.88 214.165 1670.43 230.226C1647.13 253.76 1628.73 283.479 1623.7 316.626C1607.83 427.799 1592.88 539.102 1580.1 650.68C1579.85 652.861 1579.61 655.042 1579.36 657.223C1578.33 666.374 1577.29 675.532 1576.55 684.712C1596.77 578.271 1614.73 471.413 1631.73 364.423C1632.64 358.734 1633.54 353.042 1634.44 347.351C1636.02 337.296 1637.6 327.243 1639.31 317.207C1644.24 289.574 1659.55 264.8 1678.78 244.772C1693.29 229.569 1709.88 216.547 1726.98 204.409C1728.59 203.248 1730.21 202.105 1731.83 200.962C1736.81 197.454 1741.78 193.948 1746.34 189.897C1749.55 187.022 1752.53 183.026 1751.91 178.468C1751.49 174.399 1748.16 171.223 1744.4 170.045Z" fill="#006CEB"/>
<path d="M1744.4 170.045C1739.03 168.451 1733.34 168.69 1727.82 169.03L1727.55 169.057C1720.32 169.79 1713.08 170.525 1705.97 171.991C1690.84 175.814 1676.43 181.896 1662.16 188.102C1622.19 206.017 1584.16 227.913 1546.56 250.291C1500.31 278.272 1455 307.809 1410.66 338.708C1408.44 340.265 1406.22 341.814 1404.01 343.363C1395.18 349.525 1386.34 355.691 1377.9 362.362C1416.06 339.048 1454.52 316.241 1493.18 293.753C1525.04 275.268 1557.12 257.129 1589.67 239.839C1621.8 223.003 1654.14 206.312 1688.19 193.634C1700.91 189.201 1713.93 184.973 1727.49 184.335C1725.69 185.631 1723.89 186.925 1722.08 188.219C1704.03 201.162 1685.88 214.165 1670.43 230.226C1647.13 253.76 1628.73 283.479 1623.7 316.626C1607.83 427.799 1592.88 539.102 1580.1 650.68C1579.85 652.861 1579.61 655.042 1579.36 657.223C1578.33 666.374 1577.29 675.532 1576.55 684.712C1596.77 578.271 1614.73 471.413 1631.73 364.423C1632.64 358.734 1633.54 353.042 1634.44 347.351C1636.02 337.296 1637.6 327.243 1639.31 317.207C1644.24 289.574 1659.55 264.8 1678.78 244.772C1693.29 229.569 1709.88 216.547 1726.98 204.409C1728.59 203.248 1730.21 202.105 1731.83 200.962C1736.81 197.454 1741.78 193.948 1746.34 189.897C1749.55 187.022 1752.53 183.026 1751.91 178.468C1751.49 174.399 1748.16 171.223 1744.4 170.045Z" stroke="#006CEB"/>
<path d="M1498.29 316.539C1499.17 315.704 1499.13 314.792 1498.17 313.792C1436.32 366.441 1376.66 421.661 1319.48 479.356C1294.07 505.135 1269.38 531.631 1245.58 558.904C1221.04 587.226 1197.47 616.476 1176.59 647.63C1166.61 662.738 1157.24 678.274 1149.38 694.6C1142.51 709.525 1135.97 724.61 1128.43 739.224C1105.4 784.499 1077.66 827.152 1053.29 871.685C1034.69 905.51 1018.2 940.576 1005.58 977.079C982.781 1042.57 974.139 1113.08 981.582 1182.07C982.062 1182.04 983.031 1181.97 983.511 1181.94C984.527 1137.06 989.577 1092.13 1000.64 1048.56C1010.66 1008.6 1025.5 969.952 1043.56 932.969C1076.36 865.319 1117.9 802.241 1148.96 733.716C1154.59 721.565 1159.33 709.03 1164.95 696.879C1181.76 662.035 1204.25 630.31 1227.65 599.639C1252.11 568.154 1278.13 537.926 1305 508.48C1366.22 441.37 1431.17 377.727 1498.29 316.539Z" fill="#006CEB"/>
<path d="M959.879 1465.46C958.988 1468.12 958.097 1470.78 957.197 1473.45C936.259 1535.92 915.628 1598.51 895.721 1661.31L895.718 1661.32L895.715 1661.33C895.237 1662.75 894.759 1664.31 894.283 1665.86C893.975 1666.86 893.668 1667.86 893.363 1668.82L893.352 1668.85L893.339 1668.89C892.718 1670.44 892.35 1671.83 891.967 1673.28L891.966 1673.28C891.587 1674.71 891.192 1676.19 890.525 1677.87C887.21 1688.19 884.053 1698.57 880.9 1708.96L880.599 1709.95C877.546 1720 874.491 1730.07 871.295 1740.08L867.388 1755.83L867.316 1756.12L867.094 1756.33C866.74 1756.65 866.517 1757.11 866.323 1757.75C866.244 1758.02 866.177 1758.29 866.104 1758.58C866.086 1758.65 866.069 1758.72 866.05 1758.79C865.961 1759.15 865.858 1759.54 865.723 1759.92L865.708 1759.98C861.982 1773.28 858.257 1786.57 855.172 1800.01C854.965 1801 854.752 1801.98 854.54 1802.96C853.274 1808.79 852.031 1814.52 852.19 1820.4L852.191 1820.43L852.19 1820.46C851.982 1827.05 852.115 1833.65 852.248 1840.28C852.261 1840.92 852.274 1841.56 852.287 1842.2C852.368 1843.03 852.437 1843.85 852.506 1844.68C852.678 1846.75 852.849 1848.81 853.212 1850.83C853.695 1853.53 854.503 1856.04 856.034 1858.19C857.902 1858.61 859.739 1858.14 861.634 1857.21C862.634 1856.73 863.622 1856.13 864.616 1855.5C864.845 1855.36 865.076 1855.21 865.307 1855.07C866.064 1854.59 866.829 1854.1 867.573 1853.67L867.583 1853.67C870.888 1851.83 873.203 1849 875.107 1845.72C876.446 1843.41 877.544 1840.95 878.645 1838.48C879.122 1837.41 879.6 1836.34 880.098 1835.28C889.89 1810.64 896.765 1784.98 903.638 1759.32C904.306 1756.83 904.974 1754.33 905.645 1751.84C905.646 1751.84 905.646 1751.84 905.647 1751.83L909.555 1736.77C914.048 1719.24 918.405 1701.66 922.711 1684.07L922.716 1684.05L922.723 1684.03C923.28 1682.14 923.834 1679.99 924.413 1677.73C924.6 1677.01 924.79 1676.27 924.982 1675.53C925.77 1672.51 926.614 1669.42 927.564 1666.75C927.891 1665.82 928.04 1664.59 928.235 1662.97L928.236 1662.97C928.425 1661.4 928.652 1659.56 929.168 1657.6C930.943 1650.29 932.716 1642.97 934.489 1635.65C951.811 1564.15 969.14 1492.62 988.765 1421.68L988.765 1421.68C1000.25 1380.35 1012.41 1339.18 1026.49 1298.63L1026.49 1298.62C1039.41 1262.22 1053.99 1226.43 1069.09 1190.91L1069.09 1190.91C1099.31 1120.27 1131.78 1050.62 1164.99 981.36L1164.99 981.358C1192.37 924.458 1234.58 840.378 1270.1 770.261C1287.86 735.201 1303.96 703.63 1315.69 680.69C1321.56 669.221 1326.34 659.908 1329.69 653.396C1331.36 650.14 1332.68 647.584 1333.61 645.807C1334.51 644.064 1335.06 643.015 1335.17 642.84C1336.07 641.385 1337.79 640.78 1339.28 640.6C1340.79 640.418 1342.42 640.62 1343.44 641.156C1344.43 641.675 1345.57 642.7 1346.29 644.023C1347.02 645.375 1347.34 647.11 1346.51 648.917C1346.24 649.507 1342.01 657.77 1335.01 671.422C1324.42 692.111 1307.48 725.177 1288.39 762.671C1256.68 824.935 1218.98 899.46 1194.35 949.988C1157.16 1026.66 1120.77 1103.72 1086.89 1181.88C1070.79 1219.26 1055.21 1256.86 1041.32 1295.09C1028.28 1331.56 1017.1 1368.67 1006.45 1405.93C985.414 1480.07 967.217 1554.98 949.018 1629.89C946.515 1640.19 944.012 1650.5 941.501 1660.8C941.501 1660.8 941.5 1660.8 941.5 1660.8L940.124 1666.69L940.122 1666.7C938.896 1671.68 937.674 1676.67 936.452 1681.66C932.011 1699.77 927.568 1717.9 922.941 1735.98L922.939 1735.98L918.957 1751.03L917.987 1750.78L918.954 1751.04L918.954 1751.03C912.586 1776.18 905.709 1801.27 897.304 1825.86L897.302 1825.87L897.299 1825.87C893.888 1835.4 890.352 1845.11 885.077 1853.93C881.199 1860.7 874.332 1864.84 867.928 1868.29L867.921 1868.3L867.913 1868.3C862.343 1871.18 854.57 1872.98 848.743 1868.67C845.66 1866.44 843.805 1863.34 842.581 1860.03C841.368 1856.74 840.751 1853.17 840.193 1849.95L840.185 1849.9L840.174 1849.83L840.167 1849.79L840.163 1849.75C839.085 1837.66 839.134 1825.52 839.733 1813.44L839.736 1813.4L839.742 1813.35C841.888 1798.23 845.964 1783.48 850.012 1768.83C851.187 1764.57 852.36 1760.33 853.483 1756.09L853.487 1756.07L853.49 1756.06L858.191 1740.11C858.191 1740.11 858.191 1740.11 858.191 1740.11C864.815 1717.56 871.639 1695.07 878.82 1672.69L879.942 1668.39L879.95 1668.36L879.961 1668.33C883.31 1658.32 886.482 1648.29 889.658 1638.24C892.275 1629.97 894.895 1621.68 897.616 1613.4C916.41 1555.31 935.538 1497.33 955.202 1439.52L955.208 1439.5L955.216 1439.48C973.31 1392.82 991.4 1346.16 1009.49 1299.51C1050.39 1194.02 1091.3 1088.52 1132.25 983.042L1132.6 982.142L1133.51 982.46C1135.44 983.131 1137.38 983.885 1139.31 984.632C1140.73 985.186 1142.15 985.736 1143.55 986.245L1144.5 986.595L1144.13 987.545C1102.59 1094.86 1060.97 1202.15 1019.35 1309.44C1003.86 1349.36 988.376 1389.29 972.893 1429.21L972.889 1429.22L972.886 1429.23C968.025 1441.1 963.959 1453.26 959.879 1465.46Z" fill="#00BAF4" stroke="#00BAF4" stroke-width="2"/>
<path d="M1571.16 679.835C1569.12 680.108 1567.04 680.304 1565.07 681.001C1522.84 695.568 1481.47 713.041 1442.55 735.047C1426.33 744.618 1409.99 754.627 1396.98 768.415C1392.12 773.862 1386.59 780.994 1389.16 788.747C1391.73 795.704 1399.71 797.963 1406.39 798.59C1423.55 799.926 1440.65 796.756 1457.46 793.642C1493.15 786.382 1528.25 776.283 1562.45 763.767C1519.69 770.952 1477.25 780.427 1434.08 785.032C1423.44 785.451 1412.37 787.382 1401.97 784.061C1407.06 776.199 1414.42 770.191 1421.71 764.464C1434.85 754.548 1448.9 745.911 1463.07 737.551C1495.74 718.433 1529.49 701.266 1562.91 683.534C1565.53 682.003 1568.3 680.784 1571.16 679.835Z" fill="#006CEB"/>
<path d="M1548.03 781.346C1530.07 840.524 1518.29 901.328 1502.59 961.113C1497.92 977.963 1493.39 995.026 1485.56 1010.74C1484.66 1013.35 1481.43 1013.12 1479.28 1014.05C1447.55 1024.51 1416.5 1037.46 1387.58 1054.28C1375.5 1061.6 1363.38 1069.41 1354.03 1080.15C1350.49 1084.49 1346.81 1089.87 1348.17 1095.77C1349.12 1101.29 1354.57 1104.56 1359.66 1105.67C1370.06 1107.79 1380.75 1106.51 1391.17 1105.19C1415.64 1101.71 1439.5 1094.95 1463.12 1087.81C1451.94 1105.8 1441.1 1124.02 1429.25 1141.59C1406.57 1176.04 1382.01 1209.32 1354.95 1240.47C1340.55 1256.65 1325.53 1272.29 1309.36 1286.73C1293.16 1300.82 1275.93 1313.69 1258.04 1325.56C1222.39 1349.59 1184.71 1370.44 1146.45 1389.95C1118.29 1404.31 1089.69 1417.8 1060.87 1430.77C1055.87 1432.89 1051.04 1435.46 1045.78 1436.94C1051.04 1436.69 1055.93 1434.62 1060.95 1433.28C1105.59 1419.55 1149.02 1402.03 1191.02 1381.66C1226.98 1363.75 1262.07 1343.8 1294.32 1319.74C1327.09 1295.16 1355.36 1264.99 1380.06 1232.41C1413.84 1187.71 1442.08 1138.79 1464.05 1087.24C1470.07 1085.35 1475.95 1083.01 1481.95 1081.03C1468.96 1082.13 1456.16 1084.78 1443.24 1086.46C1423.08 1089.31 1402.93 1092.43 1382.59 1093.75C1375.96 1093.88 1369.24 1094.22 1362.69 1092.88C1362.28 1091.84 1362.49 1090.96 1363.28 1090.23C1370.72 1081.16 1380.55 1074.53 1390.12 1067.94C1418.66 1049.28 1448.97 1033.58 1478.75 1017.04C1481.45 1015.44 1484.56 1014.58 1486.95 1012.49C1496.49 1001.57 1503.91 988.941 1509.84 975.734C1524.76 942.323 1533.65 906.553 1540.14 870.647C1544.74 844.325 1547.8 817.699 1548.39 790.974C1548.53 787.763 1548.58 784.524 1548.03 781.346Z" fill="#006CEB"/>
<path d="M888.329 1017.94C883.451 1016.95 879.602 1022.25 880.033 1026.72C880.782 1054.73 883.167 1082.69 886.185 1110.55C889.303 1137.42 892.563 1164.3 897.462 1190.91C901.902 1215.44 907.171 1239.91 915.189 1263.55C919.428 1274.95 923.66 1286.86 932.021 1295.97C925.766 1285.47 922.911 1273.45 920.263 1261.63C914.775 1236.13 911.98 1210.16 908.787 1184.31C906.923 1166.36 905.25 1148.41 903.298 1130.48L903.61 1129.75C902.08 1116.13 901.206 1102.45 900.103 1088.79C919.457 1122.71 944.829 1152.82 972.218 1180.49C978.946 1187.16 985.757 1193.76 992.965 1199.91C966.482 1166.44 940.307 1132.44 919.263 1095.2C910.497 1079.21 902.224 1062.64 898.355 1044.7C896.898 1037.72 896.799 1030.56 895.62 1023.54C894.219 1020.76 891.261 1018.84 888.329 1017.94Z" fill="#006CEB"/>
<path d="M868.599 1176.35C866.764 1174.14 864.299 1172.3 861.459 1171.65C857.48 1170.92 854.326 1174.68 853.513 1178.22C853.283 1182.88 853.549 1187.56 853.944 1192.23L853.646 1192.91C856.701 1241.87 861.368 1290.83 869.929 1339.18C874.241 1364.47 879.57 1389.67 887.486 1414.11C890.373 1422.63 893.583 1431.08 897.839 1439.03C900.017 1442.87 902.32 1446.76 905.66 1449.73C900.566 1442.34 898.301 1433.47 895.879 1424.95C888.768 1396.02 885.574 1366.32 882.086 1336.78C879.585 1314.25 877.352 1291.68 875.667 1269.07C874.874 1260.11 873.729 1251.17 873.656 1242.18C877.018 1249.65 881.875 1256.35 886.311 1263.22C898.178 1280.99 911.679 1297.62 925.936 1313.52C938.696 1327.5 951.837 1341.22 966.27 1353.5C940.699 1321.37 915.645 1288.61 894.961 1253.06C884.279 1233.96 873.866 1214.02 870.626 1192.11C869.63 1186.91 870.419 1181.38 868.599 1176.35Z" fill="#006CEB"/>
<path d="M825.151 1359.73C822.592 1353.62 812.342 1354.25 810.782 1360.79C809.117 1369.17 812.659 1377.46 815.259 1385.29C824.204 1429.81 833.791 1474.47 849.756 1517.09C854.93 1529.61 859.683 1542.89 869.078 1552.95C864.334 1542.77 861.612 1531.83 858.989 1520.95C853.441 1495.78 848.621 1470.46 843.743 1445.16C841.946 1436.24 840.099 1427.32 838.597 1418.35C852.387 1433.65 868.077 1447.28 885.072 1458.92C866.236 1436.45 846.327 1414.36 832.554 1388.26C829.604 1378.9 828.821 1368.89 825.151 1359.73Z" fill="#006CEB"/>
<path d="M1177.94 1438.68C1177.59 1435.21 1176.37 1431.34 1173.06 1429.63C1169.85 1428.95 1166.78 1430.66 1164.52 1432.81C1150.59 1445.94 1133.42 1454.78 1116.64 1463.67C1082.86 1481.05 1048.06 1496.36 1013.5 1512.13C1006.29 1515.15 999.429 1519.01 991.985 1521.47C1002.42 1520.05 1012.28 1516.13 1022.37 1513.28C1057.57 1502.03 1092.31 1489.16 1125.69 1473.27C1098.31 1500.19 1071.08 1527.31 1042.44 1552.92C1037.41 1557.52 1031.94 1561.65 1027.03 1566.39C1046.17 1555.38 1063.9 1542.13 1081.11 1528.34C1109.82 1505.16 1137.23 1480.38 1163.41 1454.38C1168.34 1449.23 1173.64 1444.39 1177.94 1438.68Z" fill="#006CEB"/>
<path d="M1135.89 1517.73C1131.7 1516.39 1128.03 1519.63 1125.21 1522.32C1110.76 1535.35 1093.19 1544.15 1076.09 1553.14C1042.71 1570.16 1008.38 1585.24 974.297 1600.81C967.585 1603.65 961.185 1607.22 954.228 1609.47C959.684 1609.1 964.784 1607.08 970.016 1605.71C1004.46 1595.46 1038.36 1583.31 1071.3 1568.94C1077.05 1566.73 1082.3 1563.27 1088.22 1561.61C1087.63 1562.03 1086.44 1562.88 1085.85 1563.31C1059.23 1589.87 1032.38 1616.25 1004.35 1641.33C999.325 1645.51 994.735 1650.27 989.146 1653.73C996.786 1650.97 1003.17 1645.63 1010.01 1641.38C1042.79 1618.67 1072.89 1592.34 1102.11 1565.26C1115.18 1552.71 1128.69 1540.51 1140.4 1526.67C1140.15 1523.26 1138.97 1519.59 1135.89 1517.73Z" fill="#006CEB"/>
</g>
<defs>
<clipPath id="clip0_101_103">
<rect width="2005" height="2232" fill="white" transform="matrix(-1 0 0 1 2005 0)"/>
</clipPath>
</defs>
</svg>
